<svg xmlns="http://www.w3.org/2000/svg" xmlns:xlink="http://www.w3.org/1999/xlink" viewBox="0 0 27 26"><defs><path id="a" d="M576.68 2265.95h2.77a1.05 1.05 0 0 1 0 2.1h-2.8a9.23 9.23 0 0 1-8.1 8v2.9a1.05 1.05 0 0 1-2.1 0v-2.9a9.23 9.23 0 0 1-8.1-8h-2.8a1.05 1.05 0 1 1 0-2.1h2.77a9.23 9.23 0 0 1 8.13-8.22v-2.68a1.05 1.05 0 0 1 2.1 0v2.68a9.23 9.23 0 0 1 8.13 8.22zm-1.77 2.1h-2.58a1.05 1.05 0 1 1 0-2.1h2.62a7.5 7.5 0 0 0-6.4-6.48v2.7a1.05 1.05 0 1 1-2.1 0v-2.7a7.5 7.5 0 0 0-6.38 6.48h2.62a1.05 1.05 0 0 1 0 2.1h-2.6a7.5 7.5 0 0 0 6.37 6.27v-2.5a1.05 1.05 0 1 1 2.1 0v2.5a7.5 7.5 0 0 0 6.36-6.27z"/></defs><use fill="#fff" xlink:href="#a" transform="translate(-554 -2254)"/></svg>