<?xml version="1.0" standalone="no"?>
<!DOCTYPE svg PUBLIC "-//W3C//DTD SVG 20010904//EN"
 "http://www.w3.org/TR/2001/REC-SVG-20010904/DTD/svg10.dtd">
<svg version="1.0" xmlns="http://www.w3.org/2000/svg"
 width="700.000000pt" height="700.000000pt" viewBox="0 0 700.000000 700.000000"
 preserveAspectRatio="xMidYMid meet">
<metadata>
Created by potrace 1.11, written by Peter Selinger 2001-2013
</metadata>
<g transform="translate(0.000000,700.000000) scale(0.100000,-0.100000)"
fill="#000000" stroke="none">
<path d="M3298 6996 c-1 -2 -41 -6 -88 -10 -100 -7 -225 -22 -295 -36 -27 -5
-61 -12 -75 -14 -189 -35 -486 -120 -625 -181 -16 -7 -55 -23 -85 -35 -247
-100 -656 -348 -841 -510 -10 -8 -42 -35 -73 -60 -60 -50 -307 -296 -375 -375
-69 -81 -232 -302 -298 -405 -123 -193 -243 -436 -332 -675 -38 -103 -105
-324 -116 -383 -3 -15 -7 -38 -10 -52 -25 -113 -48 -248 -60 -350 -4 -30 -8
-71 -11 -90 -2 -19 -6 -99 -9 -177 l-6 -143 163 0 163 0 1 78 c1 82 13 267 19
292 2 8 6 38 10 65 10 83 16 117 31 190 8 39 17 81 20 95 20 103 82 297 145
458 320 805 981 1461 1794 1780 223 87 432 144 651 177 160 24 167 25 267 32
282 20 596 1 867 -53 416 -84 819 -255 1167 -495 51 -35 93 -66 93 -69 0 -3
-92 -5 -205 -5 l-205 0 -1 -27 c0 -16 0 -80 0 -143 0 -63 0 -124 0 -134 1 -19
14 -20 519 -18 l517 2 2 518 c1 387 -2 517 -10 518 -49 2 -301 -2 -306 -5 -4
-3 -6 -121 -6 -264 0 -156 -3 -258 -9 -255 -5 3 -59 43 -121 88 -198 145 -443
287 -650 377 -33 15 -80 35 -105 46 -175 76 -578 187 -760 208 -25 3 -52 7
-60 9 -8 3 -42 7 -75 10 -33 4 -76 8 -95 11 -39 6 -516 14 -522 10z"/>
<path d="M3299 5766 c-2 -2 -31 -6 -64 -10 -52 -5 -157 -23 -248 -41 -60 -12
-262 -77 -344 -111 -341 -140 -649 -366 -891 -654 -82 -97 -216 -301 -274
-415 -55 -107 -132 -295 -143 -345 -1 -3 -9 -30 -18 -59 -25 -81 -65 -276 -72
-356 -4 -38 -9 -79 -11 -90 -5 -27 -5 -319 1 -370 2 -22 7 -65 10 -95 24 -217
108 -496 214 -714 57 -116 196 -346 221 -366 3 -3 19 -23 36 -44 117 -158 332
-357 520 -483 166 -112 421 -236 579 -280 185 -53 276 -72 420 -90 79 -10 462
-10 545 0 390 49 818 227 1115 465 110 89 124 102 219 196 373 376 602 869
651 1401 6 67 6 306 0 375 -38 459 -215 900 -503 1255 -55 67 -223 240 -273
280 -13 11 -47 38 -74 61 -297 244 -706 419 -1120 480 -45 6 -490 16 -496 10z
m496 -340 c270 -46 522 -140 740 -277 351 -220 634 -566 786 -959 31 -78 85
-269 94 -330 29 -199 33 -240 30 -395 -2 -93 -8 -195 -13 -225 -6 -30 -14 -73
-17 -95 -3 -22 -13 -67 -21 -100 -9 -33 -18 -69 -20 -81 -8 -45 -86 -241 -132
-332 -224 -444 -613 -792 -1072 -960 -88 -32 -258 -80 -307 -86 -54 -7 -109
-16 -133 -22 -14 -3 -104 -7 -200 -9 -187 -3 -335 13 -502 55 -600 151 -1101
587 -1335 1165 -50 124 -93 270 -108 370 -3 22 -11 69 -17 105 -14 74 -17 377
-5 460 4 30 10 73 13 95 30 220 138 511 266 713 200 319 461 558 789 723 89
45 284 123 333 134 52 10 69 15 89 21 12 4 81 17 152 29 162 27 432 28 590 1z"/>
<path d="M3360 4760 c-4 -8 -7 -64 -6 -123 1 -65 -3 -111 -9 -115 -5 -3 -38
-16 -72 -28 -211 -74 -413 -296 -439 -483 -17 -119 -8 -182 41 -286 74 -159
243 -272 450 -299 114 -16 324 -58 385 -78 205 -66 261 -144 225 -308 -36
-164 -211 -247 -461 -218 -124 15 -298 86 -419 172 l-62 45 -89 -112 c-49 -62
-95 -118 -102 -126 -32 -33 274 -209 450 -258 79 -22 97 -30 100 -47 2 -12 3
-76 2 -143 -1 -118 0 -123 20 -124 12 -1 84 -1 161 -2 l140 -1 2 114 c0 63 2
125 2 137 1 17 9 23 44 28 249 39 439 191 512 408 102 304 -28 587 -326 708
-104 42 -285 88 -414 104 -155 20 -263 55 -302 97 -71 78 -57 164 45 268 58
59 128 101 192 115 126 28 303 -20 448 -120 28 -19 54 -35 56 -35 7 0 206 237
206 245 0 11 -170 116 -237 147 -56 25 -201 79 -210 78 -2 0 -6 0 -10 0 -5 0
-8 57 -8 127 l0 126 -153 1 c-127 1 -155 -2 -162 -14z"/>
<path d="M6674 3437 c-3 -240 -37 -488 -99 -732 -36 -136 -111 -362 -126 -380
-5 -5 -9 -15 -9 -22 0 -19 -121 -270 -177 -367 -264 -461 -649 -862 -1081
-1128 -53 -32 -104 -63 -112 -69 -43 -27 -279 -141 -370 -179 -150 -61 -330
-120 -440 -144 -203 -44 -229 -49 -325 -61 -27 -4 -61 -8 -74 -10 -134 -22
-534 -25 -676 -5 -33 5 -87 11 -120 15 -33 3 -69 8 -80 11 -11 2 -31 6 -45 8
-321 55 -688 185 -985 351 -151 85 -310 191 -293 197 7 2 100 3 205 2 132 0
193 3 194 10 1 13 1 287 0 302 -1 8 -151 11 -518 10 l-518 -1 -1 -517 c-1
-466 0 -517 15 -520 9 -2 81 -3 161 -3 l145 1 2 249 c0 138 1 258 2 267 1 12
24 0 88 -48 220 -164 515 -327 787 -433 83 -32 167 -64 186 -69 96 -28 187
-54 203 -58 9 -2 25 -6 35 -8 9 -2 35 -9 57 -15 55 -15 215 -44 304 -57 25 -3
57 -7 70 -10 171 -26 667 -25 851 2 358 53 613 121 900 238 275 113 573 284
786 451 28 22 68 54 90 70 54 42 136 115 224 200 577 558 958 1324 1046 2105
4 36 8 74 10 85 1 11 5 89 9 173 l6 152 -163 0 -163 0 -1 -63z"/>
</g>
</svg>
